:version 1.10
:name ASF
:units
  mass 1
  length 1
  angle deg
:documentation
  ASF file generated by Kaydara
:root
  axis xyz
  order  tx ty tz rx ry rz
  position 0 0 0
  orientation 0 0 0
:bonedata
  begin
    id 1
    name RightUpLegDummy
    direction -0.65628 -0.754516 0.00165102
    length 4.76918
    axis 0 0 0 xyz
  end
  begin
    id 2
    name RightUpLeg
    direction -0.145584 -0.923362 0.355256
    length 17.9961
    axis -24.7611 -13.1006 1.78531 xyz
    dof rx ry rz
  end
  begin
    id 3
    name RightLeg
    direction 0.263379 0.172355 -0.949171
    length 13.3386
    axis 89.6202 -21.1929 12.3855 xyz
    dof rx ry rz
  end
  begin
    id 4
    name RightFoot
    direction 0.224283 -0.968777 -0.105675
    length 5.86697
    axis 56.995 -39.6905 17.3365 xyz
    dof rx ry rz
  end
  begin
    id 5
    name RightToes
    direction -0.0806345 -0.9037 0.420506
    length 4.75197
    axis 146.825 -39.7828 17.6019 xyz
    dof rx ry rz
  end
  begin
    id 6
    name SpineDummy
    direction -3.39852e-014 1 9.33296e-014
    length 8.13779
    axis 0 0 0 xyz
  end
  begin
    id 7
    name Spine
    direction -0.156609 0.733703 0.661176
    length 7.14978
    axis 41.2365 5.68757 17.0844 xyz
    dof rx ry rz
  end
  begin
    id 8
    name Spine1
    direction 0 0 0
    length 0
    axis 42.8809 47.8308 -3.36039 xyz
    dof rx ry rz
  end
  begin
    id 9
    name HEadDummy
    direction 0.546431 0.701947 0.456819
    length 3.55512
    axis 42.8809 47.8308 -3.36039 xyz
  end
  begin
    id 10
    name HEad
    direction 0.23444 0.828559 0.508457
    length 7.35827
    axis 51.1864 49.2662 27.4903 xyz
    dof rx ry rz
  end
  begin
    id 11
    name LeftShoulder1Dummy
    direction 0.431183 0.475873 -0.766568
    length 2.49352
    axis 42.8809 47.8308 -3.36039 xyz
  end
  begin
    id 12
    name LeftShoulder1
    direction 0.268187 -0.383402 -0.883786
    length 4.48604
    axis -119.517 0.106469 35.1736 xyz
    dof rx ry rz
  end
  begin
    id 13
    name LeftArm
    direction 0.380567 -0.703221 -0.600541
    length 10.1142
    axis -5.41825 36.2925 7.8293 xyz
    dof rx ry rz
  end
  begin
    id 14
    name LeftForeArm
    direction 0.541071 -0.732356 -0.413396
    length 9.39839
    axis 4.65387 33.7604 7.81644 xyz
    dof rx ry rz
  end
  begin
    id 15
    name LeftHand
    direction 0.847511 -0.389379 -0.360707
    length 3.66142
    axis 7.65593 21.1436 -24.6758 xyz
    dof rx ry rz
  end
  begin
    id 16
    name RightShoulderDummy
    direction -0.692546 0.541855 0.476208
    length 2.49352
    axis 42.8809 47.8308 -3.36039 xyz
  end
  begin
    id 17
    name RightShoulder
    direction -0.870808 -0.316653 0.376065
    length 4.48602
    axis 141.571 51.133 -100.254 xyz
    dof rx ry rz
  end
  begin
    id 18
    name RightArm
    direction 0.366897 -0.87275 0.322015
    length 10.1142
    axis 92.3258 71.2036 138.917 xyz
    dof rx ry rz
  end
  begin
    id 19
    name RightForeArm
    direction 0.702487 -0.694568 0.155197
    length 9.39835
    axis 153.863 41.5092 -176.604 xyz
    dof rx ry rz
  end
  begin
    id 20
    name RightHand
    direction 0.79502 -0.601276 0.0800636
    length 3.66142
    axis 154.247 4.59222 142.9 xyz
    dof rx ry rz
  end
  begin
    id 21
    name LeftUpLegDummy
    direction 0.65628 -0.754516 0.00165102
    length 4.76919
    axis 0 0 0 xyz
  end
  begin
    id 22
    name LeftUpLeg
    direction -0.1277 -0.689368 0.713067
    length 17.9961
    axis -48.3385 -17.8675 0.791927 xyz
    dof rx ry rz
  end
  begin
    id 23
    name LeftLeg
    direction 0.109849 -0.991246 -0.0732378
    length 13.3386
    axis -2.05791 -7.30784 1.72042 xyz
    dof rx ry rz
  end
  begin
    id 24
    name LeftFoot
    direction 0.0448355 -0.272614 0.961078
    length 5.86697
    axis -18.7733 -7.89606 10.2113 xyz
    dof rx ry rz
  end
  begin
    id 25
    name LeftToes
    direction -0.18506 0.293668 0.937823
    length 4.75197
    axis 71.2267 -7.89606 10.2113 xyz
    dof rx ry rz
  end
:hierarchy
  begin
    root RightUpLegDummy SpineDummy LeftUpLegDummy
    RightUpLegDummy RightUpLeg
    RightUpLeg RightLeg
    RightLeg RightFoot
    RightFoot RightToes
    SpineDummy Spine
    Spine Spine1
    Spine1 HEadDummy LeftShoulder1Dummy RightShoulderDummy
    HEadDummy HEad
    LeftShoulder1Dummy LeftShoulder1
    LeftShoulder1 LeftArm
    LeftArm LeftForeArm
    LeftForeArm LeftHand
    RightShoulderDummy RightShoulder
    RightShoulder RightArm
    RightArm RightForeArm
    RightForeArm RightHand
    LeftUpLegDummy LeftUpLeg
    LeftUpLeg LeftLeg
    LeftLeg LeftFoot
    LeftFoot LeftToes
  end

:SAMPLES-PER-SECOND 30
:FULLY-SPECIFIED
:DEGREES
365
root  -19.7029 36.5231 -10.4569 90.1752 -59.8133 62.3325
RightUpLeg  -36.9178 -5.71285 -42.0743
RightLeg  -85.162 -15.5882 11.3588
RightFoot  7.05482 5.45995 -14.4754
RightToes  -1.27222e-014 -6.36111e-015 6.36111e-015
Spine  -0.343576 -28.7064 -25.0287
Spine1  -37.6004 -15.1992 62.8617
HEad  -2.42477 -35.3293 -4.22358
LeftShoulder1  6.36111e-015 -1.33558e-015 6.49777e-015
LeftArm  -40.5414 -27.6294 -13.3857
LeftForeArm  -3.62509 -20.8802 -0.964441
LeftHand  4.14497 9.53818 2.4111
RightShoulder  -4.77083e-015 -6.36111e-015 -3.18055e-015
RightArm  -45.9214 -9.55762 -60.0325
RightForeArm  -17.5133 -20.7459 -5.53423
RightHand  22.1334 -14.4899 -62.7166
LeftUpLeg  5.31643 12.3131 62.7846
LeftLeg  -43.8147 3.46041 -12.1982
LeftFoot  3.94831 1.70714 -5.10956
LeftToes  1.27222e-014 1.09105e-011 6.96064e-012
366
root  -18.6184 36.7351 -8.85524 121.46 -53.5023 34.6043
RightUpLeg  -36.1057 -7.04404 -45.674
RightLeg  -81.6789 -16.8653 11.887
RightFoot  6.60936 5.66276 -14.7889
RightToes  -1.27222e-014 -6.36111e-015 6.36111e-015
Spine  -1.72929 -27.3289 -22.576
Spine1  -42.7612 -14.5654 59.96
HEad  -3.3872 -29.2905 -3.84124
LeftShoulder1  6.36111e-015 -1.33558e-015 6.49777e-015
LeftArm  -54.1643 -31.1227 -1.75206
LeftForeArm  -5.63762 -11.6885 -0.324827
LeftHand  3.59757 8.07687 2.73283
RightShoulder  -4.77083e-015 -6.36111e-015 -3.18055e-015
RightArm  -48.8945 -10.6987 -56.1508
RightForeArm  -22.36 -23.0191 -3.81273
RightHand  22.3042 -15.919 -60.4258
LeftUpLeg  11.1271 10.6415 61.5343
LeftLeg  -43.0751 2.23916 -10.2871
LeftFoot  2.8775 1.71113 -5.27339
LeftToes  1.27222e-014 1.09105e-011 6.96064e-012
367
root  -16.7423 36.8186 -7.86186 139.312 -39.7685 18.3201
RightUpLeg  -33.0308 -6.16037 -49.1005
RightLeg  -76.7221 -18.7152 12.3495
RightFoot  6.1302 5.80507 -14.9776
RightToes  -1.27222e-014 -6.36111e-015 6.36111e-015
Spine  -4.09233 -24.0861 -18.3803
Spine1  -46.4162 -14.1803 54.572
HEad  -3.01142 -24.255 -4.38542
LeftShoulder1  6.36111e-015 -1.33558e-015 6.49777e-015
LeftArm  -68.195 -36.587 16.1662
LeftForeArm  -11.1748 -1.74583 0.229166
LeftHand  3.75247 8.22381 3.28535
RightShoulder  -4.77083e-015 -6.36111e-015 -3.18055e-015
RightArm  -49.9009 -9.38819 -53.7223
RightForeArm  -27.0553 -27.7732 -1.67875
RightHand  21.7642 -16.711 -57.7208
LeftUpLeg  17.157 9.28319 60.2251
LeftLeg  -40.1658 -0.170363 -6.69534
LeftFoot  3.45147 1.64625 -4.99364
LeftToes  1.27222e-014 1.09105e-011 6.96064e-012
368
root  -14.4214 36.8917 -7.61551 148.361 -21.139 9.77289
RightUpLeg  -28.9235 -2.67553 -50.809
RightLeg  -72.2574 -20.6104 12.8912
RightFoot  6.30863 5.43821 -14.2636
RightToes  -1.27222e-014 -6.36111e-015 6.36111e-015
Spine  -8.20354 -18.7717 -12.5858
Spine1  -45.9626 -14.3645 46.0558
HEad  -1.77266 -20.6769 -5.22744
LeftShoulder1  6.36111e-015 -1.33558e-015 6.49777e-015
LeftArm  -83.8207 -40.2002 37.3914
LeftForeArm  -15.8355 8.5342 1.69295
LeftHand  5.89217 12.2982 5.29358
RightShoulder  -4.77083e-015 -6.36111e-015 -3.18055e-015
RightArm  -45.6396 2.52957 -53.4265
RightForeArm  -32.8333 -45.6583 -2.9356
RightHand  21.4786 -17.8243 -55.111
LeftUpLeg  22.6335 6.72259 58.8692
LeftLeg  -34.7161 -0.851519 -4.55236
LeftFoot  4.4058 1.51458 -4.47783
LeftToes  1.27222e-014 1.09105e-011 6.96064e-012
